<svg width="71" height="94" viewBox="0 0 71 94" fill="none" xmlns="http://www.w3.org/2000/svg">
    <rect x="0.5" width="70" height="94" rx="35" fill="white"/>
    <path fill-rule="evenodd" clip-rule="evenodd" d="M34.2287 55.9021C35.7255 58.9502 36.0856 62.5836 35.9646 65L35.0142 64.9602C35.1309 62.63 34.7776 59.1434 33.3608 56.2582C31.9522 53.3898 29.5329 51.175 25.5 51.175L25.5 50.3054C30.0294 50.3054 32.7237 52.8373 34.2287 55.9021Z" fill="black"/>
    <path fill-rule="evenodd" clip-rule="evenodd" d="M36.7713 55.9021C35.2745 58.9502 34.9144 62.5836 35.0354 65L35.9858 64.9602C35.8691 62.63 36.2224 59.1434 37.6392 56.2582C39.0478 53.3898 41.4671 51.175 45.5 51.1751L45.5 50.3054C40.9706 50.3054 38.2763 52.8373 36.7713 55.9021Z" fill="black"/>
    <path fill-rule="evenodd" clip-rule="evenodd" d="M35.0137 64.9801L35.0137 29L35.9651 29L35.9651 64.9801L35.0137 64.9801Z" fill="black"/>
</svg>
